# xmcd CD database file
#
# Track frame offsets:
#	150
#	16087
#	33712
#
# Disc length: 661 seconds
#
# Revision: 0
# Processed by: cddbd v1.5.1PL2 Copyright (c) Steve Scherf et al.
# Submitted via: CDex 1.51
#
DISCID=1a029303
DTITLE=ISIS - SUMMER GOODでいいじゃない(Part II)
DYEAR=1996
DGENRE=Pop
TTITLE0=SUMMER GOODでいいじゃない(Part II)
TTITLE1=リン リン ルーラ
TTITLE2=SUMMER GOODでいいじゃない(Part II)（オリジナルカラオケ）
EXTD=YEAR: 1996
EXTT0=
EXTT1=
EXTT2=
PLAYORDER=
